<svg xmlns="http://www.w3.org/2000/svg" xmlns:xlink="http://www.w3.org/1999/xlink" width="250" zoomAndPan="magnify" viewBox="0 0 187.5 74.999997" height="100" preserveAspectRatio="xMidYMid meet" version="1.0"><defs><g/><clipPath id="037b3f796a"><path d="M 0 13.058594 L 52.359375 13.058594 L 52.359375 61.675781 L 0 61.675781 Z M 0 13.058594 " clip-rule="nonzero"/></clipPath></defs><g clip-path="url(#037b3f796a)"><path fill="#b129a2" d="M 26.28125 28.933594 C 25.65625 28.933594 25.152344 29.160156 25.152344 29.441406 C 25.152344 29.722656 25.65625 29.949219 26.28125 29.949219 C 26.902344 29.949219 27.40625 29.722656 27.40625 29.441406 C 27.40625 29.160156 26.902344 28.933594 26.28125 28.933594 Z M 34.597656 30.046875 C 34.097656 30.046875 33.691406 30.230469 33.691406 30.457031 C 33.691406 30.683594 34.097656 30.867188 34.597656 30.867188 C 35.101562 30.867188 35.507812 30.683594 35.507812 30.457031 C 35.507812 30.230469 35.101562 30.046875 34.597656 30.046875 Z M 34.664062 36.328125 C 36.566406 35.820312 37.726562 35.136719 37.726562 34.390625 C 37.726562 32.8125 32.601562 31.539062 26.28125 31.539062 C 19.957031 31.539062 14.832031 32.8125 14.832031 34.390625 C 14.832031 35.136719 15.992188 35.820312 17.894531 36.328125 C 11.9375 35.570312 7.859375 34.027344 7.859375 32.242188 C 7.859375 29.710938 16.105469 27.65625 26.28125 27.65625 C 36.453125 27.65625 44.699219 29.710938 44.699219 32.242188 C 44.699219 34.027344 40.621094 35.570312 34.664062 36.328125 Z M 43.394531 39.464844 C 42.941406 39.511719 42.585938 39.867188 42.535156 40.320312 L 42.460938 41.015625 L 42.386719 40.320312 C 42.339844 39.867188 41.984375 39.511719 41.53125 39.464844 L 40.839844 39.390625 L 41.53125 39.316406 C 41.984375 39.265625 42.339844 38.910156 42.386719 38.457031 L 42.460938 37.765625 L 42.535156 38.457031 C 42.585938 38.910156 42.941406 39.265625 43.394531 39.316406 L 44.085938 39.390625 Z M 12.039062 41.089844 C 11.585938 41.136719 11.230469 41.492188 11.183594 41.945312 L 11.109375 42.640625 L 11.035156 41.945312 C 10.988281 41.492188 10.628906 41.136719 10.179688 41.089844 L 9.484375 41.015625 L 10.179688 40.941406 C 10.628906 40.890625 10.988281 40.535156 11.035156 40.082031 L 11.109375 39.390625 L 11.183594 40.082031 C 11.230469 40.535156 11.585938 40.890625 12.039062 40.941406 L 12.734375 41.015625 Z M 26.28125 26.300781 C 35.679688 26.300781 43.386719 28.542969 44.164062 30.835938 C 42.351562 28.789062 35.03125 27.261719 26.28125 27.261719 C 17.527344 27.261719 10.207031 28.789062 8.394531 30.835938 C 9.171875 28.542969 16.882812 26.300781 26.28125 26.300781 Z M 14.03125 21.628906 C 14.566406 21.574219 14.988281 21.152344 15.046875 20.617188 L 15.132812 19.796875 L 15.21875 20.617188 C 15.277344 21.152344 15.699219 21.574219 16.230469 21.628906 L 17.054688 21.71875 L 16.230469 21.804688 C 15.699219 21.859375 15.277344 22.28125 15.21875 22.816406 L 15.132812 23.636719 L 15.046875 22.816406 C 14.988281 22.28125 14.566406 21.859375 14.03125 21.804688 L 13.214844 21.71875 Z M 26.28125 20.832031 C 29.679688 20.832031 32.558594 23.121094 33.554688 26.285156 C 31.324219 26.046875 28.863281 25.914062 26.28125 25.914062 C 23.695312 25.914062 21.234375 26.046875 19.003906 26.285156 C 20 23.121094 22.878906 20.832031 26.28125 20.832031 Z M 39.738281 24.621094 C 40.273438 24.566406 40.695312 24.144531 40.75 23.609375 L 40.839844 22.789062 L 40.925781 23.609375 C 40.980469 24.144531 41.402344 24.566406 41.9375 24.621094 L 42.757812 24.710938 L 41.9375 24.796875 C 41.402344 24.855469 40.980469 25.277344 40.925781 25.808594 L 40.839844 26.628906 L 40.75 25.808594 C 40.695312 25.277344 40.273438 24.855469 39.738281 24.796875 L 38.917969 24.710938 Z M 26.28125 13.0625 C 11.765625 13.0625 0 24.828125 0 39.34375 C 0 48.945312 5.148438 57.339844 12.835938 61.925781 L 24.035156 36.3125 C 21.960938 36.09375 20.507812 35.582031 20.507812 34.980469 C 20.507812 34.1875 23.089844 33.539062 26.28125 33.539062 C 29.46875 33.539062 32.054688 34.1875 32.054688 34.980469 C 32.054688 35.582031 30.597656 36.09375 28.523438 36.3125 L 39.722656 61.925781 C 47.410156 57.339844 52.558594 48.945312 52.558594 39.34375 C 52.558594 24.828125 40.792969 13.0625 26.28125 13.0625 Z M 30.980469 25.472656 C 31.386719 25.503906 31.78125 25.542969 32.175781 25.582031 C 31.140625 23.660156 29.328125 22.035156 27.226562 21.71875 C 28.863281 22.472656 30.199219 23.808594 30.980469 25.472656 Z M 17.960938 30.046875 C 17.457031 30.046875 17.054688 30.230469 17.054688 30.457031 C 17.054688 30.683594 17.457031 30.867188 17.960938 30.867188 C 18.460938 30.867188 18.867188 30.683594 18.867188 30.457031 C 18.867188 30.230469 18.460938 30.046875 17.960938 30.046875 " fill-opacity="1" fill-rule="nonzero"/></g><g fill="#dddde4" fill-opacity="1"><g transform="translate(53.073973, 45.517694)"><g><path d="M 11.296875 -9.46875 L 16.109375 -9.46875 L 16.109375 -2.96875 C 15.316406 -2.019531 14.351562 -1.242188 13.21875 -0.640625 C 12.082031 -0.046875 10.847656 0.25 9.515625 0.25 C 8.316406 0.25 7.179688 0.0078125 6.109375 -0.46875 C 5.046875 -0.957031 4.125 -1.613281 3.34375 -2.4375 C 2.5625 -3.257812 1.941406 -4.21875 1.484375 -5.3125 C 1.023438 -6.414062 0.796875 -7.59375 0.796875 -8.84375 C 0.796875 -10.070312 1.023438 -11.238281 1.484375 -12.34375 C 1.941406 -13.457031 2.5625 -14.425781 3.34375 -15.25 C 4.125 -16.070312 5.046875 -16.722656 6.109375 -17.203125 C 7.179688 -17.691406 8.316406 -17.9375 9.515625 -17.9375 C 10.617188 -17.9375 11.660156 -17.71875 12.640625 -17.28125 C 13.617188 -16.851562 14.503906 -16.289062 15.296875 -15.59375 L 13.734375 -13.609375 C 13.191406 -14.191406 12.554688 -14.660156 11.828125 -15.015625 C 11.109375 -15.378906 10.335938 -15.5625 9.515625 -15.5625 C 8.671875 -15.5625 7.875 -15.378906 7.125 -15.015625 C 6.382812 -14.660156 5.738281 -14.175781 5.1875 -13.5625 C 4.644531 -12.945312 4.210938 -12.234375 3.890625 -11.421875 C 3.578125 -10.617188 3.421875 -9.757812 3.421875 -8.84375 C 3.421875 -7.925781 3.578125 -7.0625 3.890625 -6.25 C 4.210938 -5.445312 4.644531 -4.738281 5.1875 -4.125 C 5.738281 -3.519531 6.382812 -3.039062 7.125 -2.6875 C 7.875 -2.34375 8.671875 -2.171875 9.515625 -2.171875 C 10.296875 -2.171875 11.023438 -2.320312 11.703125 -2.625 C 12.390625 -2.9375 13.003906 -3.351562 13.546875 -3.875 L 13.546875 -7.046875 L 11.296875 -7.046875 Z M 11.296875 -9.46875 "/></g></g></g><g fill="#dddde4" fill-opacity="1"><g transform="translate(69.166063, 45.517694)"><g><path d="M 8.625 -9.75 C 8.5 -9.789062 8.378906 -9.835938 8.265625 -9.890625 C 8.171875 -9.921875 8.054688 -9.953125 7.921875 -9.984375 C 7.785156 -10.023438 7.644531 -10.046875 7.5 -10.046875 C 7.007812 -10.046875 6.554688 -9.960938 6.140625 -9.796875 C 5.722656 -9.640625 5.363281 -9.425781 5.0625 -9.15625 C 4.769531 -8.894531 4.535156 -8.582031 4.359375 -8.21875 C 4.179688 -7.863281 4.09375 -7.488281 4.09375 -7.09375 L 4.078125 0 L 1.65625 0 L 1.65625 -11.96875 L 3.578125 -11.96875 L 4.078125 -10.640625 C 4.410156 -11.128906 4.847656 -11.519531 5.390625 -11.8125 C 5.929688 -12.101562 6.609375 -12.25 7.421875 -12.25 C 7.953125 -12.25 8.5625 -12.171875 9.25 -12.015625 Z M 8.625 -9.75 "/></g></g></g><g fill="#dddde4" fill-opacity="1"><g transform="translate(76.962114, 45.517694)"><g><path d="M 12.734375 -11.96875 L 12.734375 0 L 10.6875 0 L 10.3125 -1.375 C 9.894531 -0.820312 9.363281 -0.40625 8.71875 -0.125 C 8.070312 0.15625 7.414062 0.296875 6.75 0.296875 C 5.914062 0.296875 5.132812 0.132812 4.40625 -0.1875 C 3.6875 -0.507812 3.054688 -0.953125 2.515625 -1.515625 C 1.972656 -2.085938 1.539062 -2.753906 1.21875 -3.515625 C 0.90625 -4.285156 0.75 -5.101562 0.75 -5.96875 C 0.75 -6.832031 0.90625 -7.644531 1.21875 -8.40625 C 1.539062 -9.175781 1.972656 -9.84375 2.515625 -10.40625 C 3.054688 -10.976562 3.6875 -11.425781 4.40625 -11.75 C 5.132812 -12.082031 5.914062 -12.25 6.75 -12.25 C 7.414062 -12.25 8.054688 -12.117188 8.671875 -11.859375 C 9.285156 -11.597656 9.832031 -11.191406 10.3125 -10.640625 L 10.6875 -11.96875 Z M 6.75 -1.84375 C 7.226562 -1.84375 7.679688 -1.953125 8.109375 -2.171875 C 8.546875 -2.390625 8.921875 -2.6875 9.234375 -3.0625 C 9.554688 -3.4375 9.804688 -3.875 9.984375 -4.375 C 10.171875 -4.875 10.265625 -5.40625 10.265625 -5.96875 C 10.265625 -6.539062 10.171875 -7.070312 9.984375 -7.5625 C 9.804688 -8.0625 9.554688 -8.5 9.234375 -8.875 C 8.921875 -9.25 8.546875 -9.546875 8.109375 -9.765625 C 7.679688 -9.984375 7.226562 -10.09375 6.75 -10.09375 C 6.257812 -10.09375 5.796875 -9.984375 5.359375 -9.765625 C 4.929688 -9.546875 4.554688 -9.25 4.234375 -8.875 C 3.921875 -8.5 3.671875 -8.0625 3.484375 -7.5625 C 3.304688 -7.070312 3.21875 -6.539062 3.21875 -5.96875 C 3.21875 -5.40625 3.304688 -4.875 3.484375 -4.375 C 3.671875 -3.875 3.921875 -3.4375 4.234375 -3.0625 C 4.554688 -2.6875 4.929688 -2.390625 5.359375 -2.171875 C 5.796875 -1.953125 6.257812 -1.84375 6.75 -1.84375 Z M 6.75 -1.84375 "/></g></g></g><g fill="#dddde4" fill-opacity="1"><g transform="translate(89.131079, 45.517694)"><g><path d="M 1.40625 4.953125 L 1.40625 -11.96875 L 3.328125 -11.96875 L 3.828125 -10.71875 C 4.304688 -11.195312 4.859375 -11.570312 5.484375 -11.84375 C 6.109375 -12.113281 6.8125 -12.25 7.59375 -12.25 C 8.425781 -12.25 9.195312 -12.082031 9.90625 -11.75 C 10.613281 -11.425781 11.222656 -10.976562 11.734375 -10.40625 C 12.253906 -9.84375 12.660156 -9.175781 12.953125 -8.40625 C 13.242188 -7.644531 13.390625 -6.832031 13.390625 -5.96875 C 13.390625 -5.101562 13.242188 -4.285156 12.953125 -3.515625 C 12.660156 -2.753906 12.253906 -2.085938 11.734375 -1.515625 C 11.222656 -0.953125 10.613281 -0.507812 9.90625 -0.1875 C 9.195312 0.132812 8.425781 0.296875 7.59375 0.296875 C 6.78125 0.296875 6.0625 0.160156 5.4375 -0.109375 C 4.820312 -0.390625 4.285156 -0.785156 3.828125 -1.296875 L 3.828125 4.953125 Z M 7.390625 -10.046875 C 6.910156 -10.046875 6.453125 -9.960938 6.015625 -9.796875 C 5.585938 -9.640625 5.207031 -9.390625 4.875 -9.046875 C 4.550781 -8.710938 4.296875 -8.289062 4.109375 -7.78125 C 3.929688 -7.269531 3.84375 -6.664062 3.84375 -5.96875 C 3.84375 -5.21875 3.929688 -4.578125 4.109375 -4.046875 C 4.296875 -3.523438 4.550781 -3.101562 4.875 -2.78125 C 5.207031 -2.457031 5.585938 -2.21875 6.015625 -2.0625 C 6.453125 -1.914062 6.910156 -1.84375 7.390625 -1.84375 C 7.878906 -1.84375 8.335938 -1.953125 8.765625 -2.171875 C 9.203125 -2.390625 9.578125 -2.6875 9.890625 -3.0625 C 10.210938 -3.4375 10.460938 -3.875 10.640625 -4.375 C 10.828125 -4.875 10.921875 -5.40625 10.921875 -5.96875 C 10.921875 -6.539062 10.828125 -7.070312 10.640625 -7.5625 C 10.460938 -8.0625 10.210938 -8.492188 9.890625 -8.859375 C 9.578125 -9.234375 9.203125 -9.523438 8.765625 -9.734375 C 8.335938 -9.941406 7.878906 -10.046875 7.390625 -10.046875 Z M 7.390625 -10.046875 "/></g></g></g><g fill="#dddde4" fill-opacity="1"><g transform="translate(101.574913, 45.517694)"><g><path d="M 3.828125 0 L 1.40625 0 L 1.40625 -18.234375 L 3.828125 -18.234375 L 3.828125 -10.875 C 4.273438 -11.375 4.742188 -11.726562 5.234375 -11.9375 C 5.722656 -12.144531 6.296875 -12.25 6.953125 -12.25 C 7.773438 -12.25 8.515625 -12.082031 9.171875 -11.75 C 9.835938 -11.425781 10.398438 -10.976562 10.859375 -10.40625 C 11.328125 -9.84375 11.679688 -9.175781 11.921875 -8.40625 C 12.171875 -7.644531 12.296875 -6.832031 12.296875 -5.96875 L 12.296875 0 L 9.84375 0 L 9.84375 -5.96875 C 9.84375 -6.539062 9.765625 -7.070312 9.609375 -7.5625 C 9.453125 -8.0625 9.234375 -8.492188 8.953125 -8.859375 C 8.679688 -9.234375 8.363281 -9.523438 8 -9.734375 C 7.644531 -9.941406 7.257812 -10.046875 6.84375 -10.046875 C 6.5 -10.046875 6.148438 -9.972656 5.796875 -9.828125 C 5.441406 -9.691406 5.117188 -9.460938 4.828125 -9.140625 C 4.535156 -8.828125 4.296875 -8.410156 4.109375 -7.890625 C 3.921875 -7.378906 3.828125 -6.753906 3.828125 -6.015625 Z M 3.828125 0 "/></g></g></g><g fill="#dddde4" fill-opacity="1"><g transform="translate(113.469009, 45.517694)"><g><path d="M 3.921875 0 L 1.5 0 L 1.5 -11.96875 L 3.890625 -11.96875 Z M 2.703125 -14.5625 C 2.265625 -14.5625 1.894531 -14.710938 1.59375 -15.015625 C 1.300781 -15.328125 1.15625 -15.703125 1.15625 -16.140625 C 1.15625 -16.578125 1.300781 -16.941406 1.59375 -17.234375 C 1.894531 -17.535156 2.265625 -17.6875 2.703125 -17.6875 C 3.128906 -17.6875 3.492188 -17.535156 3.796875 -17.234375 C 4.097656 -16.941406 4.25 -16.578125 4.25 -16.140625 C 4.25 -15.703125 4.097656 -15.328125 3.796875 -15.015625 C 3.492188 -14.710938 3.128906 -14.5625 2.703125 -14.5625 Z M 2.703125 -14.5625 "/></g></g></g><g fill="#dddde4" fill-opacity="1"><g transform="translate(117.067066, 45.517694)"><g><path d="M 6.890625 0.296875 C 6.054688 0.296875 5.273438 0.132812 4.546875 -0.1875 C 3.828125 -0.507812 3.195312 -0.953125 2.65625 -1.515625 C 2.113281 -2.085938 1.6875 -2.753906 1.375 -3.515625 C 1.0625 -4.285156 0.90625 -5.101562 0.90625 -5.96875 C 0.90625 -6.832031 1.0625 -7.644531 1.375 -8.40625 C 1.6875 -9.175781 2.113281 -9.84375 2.65625 -10.40625 C 3.195312 -10.976562 3.828125 -11.425781 4.546875 -11.75 C 5.273438 -12.082031 6.054688 -12.25 6.890625 -12.25 C 7.859375 -12.25 8.75 -12.03125 9.5625 -11.59375 C 10.382812 -11.15625 11.070312 -10.5625 11.625 -9.8125 L 9.921875 -8.5 C 9.585938 -8.976562 9.164062 -9.351562 8.65625 -9.625 C 8.144531 -9.90625 7.597656 -10.046875 7.015625 -10.046875 C 6.515625 -10.046875 6.039062 -9.941406 5.59375 -9.734375 C 5.144531 -9.523438 4.753906 -9.234375 4.421875 -8.859375 C 4.085938 -8.492188 3.820312 -8.0625 3.625 -7.5625 C 3.4375 -7.070312 3.34375 -6.539062 3.34375 -5.96875 C 3.34375 -5.40625 3.4375 -4.875 3.625 -4.375 C 3.820312 -3.875 4.085938 -3.4375 4.421875 -3.0625 C 4.753906 -2.6875 5.144531 -2.390625 5.59375 -2.171875 C 6.039062 -1.953125 6.515625 -1.84375 7.015625 -1.84375 C 7.671875 -1.84375 8.265625 -2.015625 8.796875 -2.359375 C 9.328125 -2.710938 9.757812 -3.179688 10.09375 -3.765625 L 11.75 -2.328125 C 11.207031 -1.523438 10.507812 -0.882812 9.65625 -0.40625 C 8.8125 0.0625 7.890625 0.296875 6.890625 0.296875 Z M 6.890625 0.296875 "/></g></g></g><g fill="#dddde4" fill-opacity="1"><g transform="translate(128.11157, 45.517694)"><g><path d="M 7.6875 0 L 0.34375 -17.71875 L 3.171875 -17.71875 L 9.140625 -3.34375 L 15.109375 -17.71875 L 17.9375 -17.71875 L 10.59375 0 Z M 7.6875 0 "/></g></g></g><g fill="#dddde4" fill-opacity="1"><g transform="translate(144.753398, 45.517694)"><g><path d="M 7.078125 0.296875 C 6.203125 0.296875 5.382812 0.132812 4.625 -0.1875 C 3.875 -0.507812 3.210938 -0.953125 2.640625 -1.515625 C 2.078125 -2.085938 1.632812 -2.753906 1.3125 -3.515625 C 0.988281 -4.285156 0.828125 -5.101562 0.828125 -5.96875 C 0.828125 -6.832031 0.976562 -7.644531 1.28125 -8.40625 C 1.59375 -9.175781 2.007812 -9.84375 2.53125 -10.40625 C 3.0625 -10.976562 3.675781 -11.425781 4.375 -11.75 C 5.070312 -12.082031 5.820312 -12.25 6.625 -12.25 C 7.4375 -12.25 8.1875 -12.101562 8.875 -11.8125 C 9.570312 -11.53125 10.171875 -11.085938 10.671875 -10.484375 C 11.179688 -9.890625 11.578125 -9.128906 11.859375 -8.203125 C 12.148438 -7.285156 12.296875 -6.179688 12.296875 -4.890625 L 3.390625 -4.890625 C 3.515625 -4.460938 3.703125 -4.0625 3.953125 -3.6875 C 4.203125 -3.3125 4.492188 -2.984375 4.828125 -2.703125 C 5.171875 -2.429688 5.554688 -2.21875 5.984375 -2.0625 C 6.410156 -1.914062 6.859375 -1.84375 7.328125 -1.84375 C 7.953125 -1.84375 8.535156 -1.957031 9.078125 -2.1875 C 9.617188 -2.425781 10.082031 -2.738281 10.46875 -3.125 L 11.96875 -1.625 C 11.382812 -1.039062 10.671875 -0.570312 9.828125 -0.21875 C 8.984375 0.125 8.066406 0.296875 7.078125 0.296875 Z M 6.625 -10.046875 C 6.238281 -10.046875 5.875 -9.96875 5.53125 -9.8125 C 5.1875 -9.664062 4.867188 -9.457031 4.578125 -9.1875 C 4.285156 -8.925781 4.035156 -8.609375 3.828125 -8.234375 C 3.617188 -7.867188 3.46875 -7.472656 3.375 -7.046875 L 9.6875 -7.046875 C 9.65625 -7.441406 9.5625 -7.820312 9.40625 -8.1875 C 9.257812 -8.5625 9.050781 -8.882812 8.78125 -9.15625 C 8.519531 -9.425781 8.210938 -9.640625 7.859375 -9.796875 C 7.503906 -9.960938 7.09375 -10.046875 6.625 -10.046875 Z M 6.625 -10.046875 "/></g></g></g><g fill="#dddde4" fill-opacity="1"><g transform="translate(156.347634, 45.517694)"><g><path d="M 8.625 -9.75 C 8.5 -9.789062 8.378906 -9.835938 8.265625 -9.890625 C 8.171875 -9.921875 8.054688 -9.953125 7.921875 -9.984375 C 7.785156 -10.023438 7.644531 -10.046875 7.5 -10.046875 C 7.007812 -10.046875 6.554688 -9.960938 6.140625 -9.796875 C 5.722656 -9.640625 5.363281 -9.425781 5.0625 -9.15625 C 4.769531 -8.894531 4.535156 -8.582031 4.359375 -8.21875 C 4.179688 -7.863281 4.09375 -7.488281 4.09375 -7.09375 L 4.078125 0 L 1.65625 0 L 1.65625 -11.96875 L 3.578125 -11.96875 L 4.078125 -10.640625 C 4.410156 -11.128906 4.847656 -11.519531 5.390625 -11.8125 C 5.929688 -12.101562 6.609375 -12.25 7.421875 -12.25 C 7.953125 -12.25 8.5625 -12.171875 9.25 -12.015625 Z M 8.625 -9.75 "/></g></g></g><g fill="#dddde4" fill-opacity="1"><g transform="translate(164.143685, 45.517694)"><g><path d="M 6.96875 -2.5 C 7.125 -2.632812 7.257812 -2.785156 7.375 -2.953125 C 7.488281 -3.117188 7.546875 -3.304688 7.546875 -3.515625 C 7.546875 -3.785156 7.445312 -4.007812 7.25 -4.1875 C 7.0625 -4.375 6.828125 -4.53125 6.546875 -4.65625 C 6.273438 -4.78125 5.988281 -4.875 5.6875 -4.9375 C 5.394531 -5.007812 5.148438 -5.070312 4.953125 -5.125 C 4.398438 -5.257812 3.878906 -5.421875 3.390625 -5.609375 C 2.910156 -5.796875 2.488281 -6.023438 2.125 -6.296875 C 1.769531 -6.578125 1.488281 -6.90625 1.28125 -7.28125 C 1.070312 -7.65625 0.96875 -8.101562 0.96875 -8.625 C 0.96875 -9.101562 1.082031 -9.554688 1.3125 -9.984375 C 1.550781 -10.410156 1.863281 -10.785156 2.25 -11.109375 C 2.644531 -11.429688 3.101562 -11.6875 3.625 -11.875 C 4.15625 -12.070312 4.710938 -12.171875 5.296875 -12.171875 C 5.816406 -12.171875 6.304688 -12.09375 6.765625 -11.9375 C 7.234375 -11.789062 7.65625 -11.585938 8.03125 -11.328125 C 8.40625 -11.066406 8.722656 -10.753906 8.984375 -10.390625 C 9.242188 -10.023438 9.414062 -9.617188 9.5 -9.171875 L 7.328125 -8.640625 C 7.222656 -9.046875 7.003906 -9.378906 6.671875 -9.640625 C 6.335938 -9.910156 5.878906 -10.046875 5.296875 -10.046875 C 5.097656 -10.046875 4.890625 -10.015625 4.671875 -9.953125 C 4.453125 -9.898438 4.25 -9.8125 4.0625 -9.6875 C 3.882812 -9.570312 3.734375 -9.429688 3.609375 -9.265625 C 3.484375 -9.097656 3.421875 -8.90625 3.421875 -8.6875 C 3.421875 -8.457031 3.488281 -8.257812 3.625 -8.09375 C 3.769531 -7.925781 3.941406 -7.785156 4.140625 -7.671875 C 4.347656 -7.566406 4.566406 -7.484375 4.796875 -7.421875 C 5.023438 -7.359375 5.242188 -7.300781 5.453125 -7.25 C 6.328125 -7.03125 7.054688 -6.796875 7.640625 -6.546875 C 8.222656 -6.296875 8.6875 -6.019531 9.03125 -5.71875 C 9.382812 -5.414062 9.632812 -5.085938 9.78125 -4.734375 C 9.925781 -4.378906 10 -3.972656 10 -3.515625 C 10 -2.984375 9.875 -2.484375 9.625 -2.015625 C 9.382812 -1.554688 9.050781 -1.15625 8.625 -0.8125 C 8.207031 -0.46875 7.703125 -0.195312 7.109375 0 C 6.515625 0.1875 5.878906 0.28125 5.203125 0.28125 C 4.160156 0.28125 3.234375 0.0234375 2.421875 -0.484375 C 1.617188 -0.992188 1.078125 -1.671875 0.796875 -2.515625 L 2.84375 -3.453125 C 3.113281 -2.867188 3.457031 -2.472656 3.875 -2.265625 C 4.289062 -2.054688 4.765625 -1.953125 5.296875 -1.953125 C 5.960938 -1.953125 6.519531 -2.132812 6.96875 -2.5 Z M 6.96875 -2.5 "/></g></g></g><g fill="#dddde4" fill-opacity="1"><g transform="translate(173.239113, 45.517694)"><g><path d="M 7.078125 0.296875 C 6.203125 0.296875 5.382812 0.132812 4.625 -0.1875 C 3.875 -0.507812 3.210938 -0.953125 2.640625 -1.515625 C 2.078125 -2.085938 1.632812 -2.753906 1.3125 -3.515625 C 0.988281 -4.285156 0.828125 -5.101562 0.828125 -5.96875 C 0.828125 -6.832031 0.976562 -7.644531 1.28125 -8.40625 C 1.59375 -9.175781 2.007812 -9.84375 2.53125 -10.40625 C 3.0625 -10.976562 3.675781 -11.425781 4.375 -11.75 C 5.070312 -12.082031 5.820312 -12.25 6.625 -12.25 C 7.4375 -12.25 8.1875 -12.101562 8.875 -11.8125 C 9.570312 -11.53125 10.171875 -11.085938 10.671875 -10.484375 C 11.179688 -9.890625 11.578125 -9.128906 11.859375 -8.203125 C 12.148438 -7.285156 12.296875 -6.179688 12.296875 -4.890625 L 3.390625 -4.890625 C 3.515625 -4.460938 3.703125 -4.0625 3.953125 -3.6875 C 4.203125 -3.3125 4.492188 -2.984375 4.828125 -2.703125 C 5.171875 -2.429688 5.554688 -2.21875 5.984375 -2.0625 C 6.410156 -1.914062 6.859375 -1.84375 7.328125 -1.84375 C 7.953125 -1.84375 8.535156 -1.957031 9.078125 -2.1875 C 9.617188 -2.425781 10.082031 -2.738281 10.46875 -3.125 L 11.96875 -1.625 C 11.382812 -1.039062 10.671875 -0.570312 9.828125 -0.21875 C 8.984375 0.125 8.066406 0.296875 7.078125 0.296875 Z M 6.625 -10.046875 C 6.238281 -10.046875 5.875 -9.96875 5.53125 -9.8125 C 5.1875 -9.664062 4.867188 -9.457031 4.578125 -9.1875 C 4.285156 -8.925781 4.035156 -8.609375 3.828125 -8.234375 C 3.617188 -7.867188 3.46875 -7.472656 3.375 -7.046875 L 9.6875 -7.046875 C 9.65625 -7.441406 9.5625 -7.820312 9.40625 -8.1875 C 9.257812 -8.5625 9.050781 -8.882812 8.78125 -9.15625 C 8.519531 -9.425781 8.210938 -9.640625 7.859375 -9.796875 C 7.503906 -9.960938 7.09375 -10.046875 6.625 -10.046875 Z M 6.625 -10.046875 "/></g></g></g></svg>