<svg xmlns="http://www.w3.org/2000/svg" xmlns:xlink="http://www.w3.org/1999/xlink" width="250" zoomAndPan="magnify" viewBox="0 0 187.5 74.999997" height="100" preserveAspectRatio="xMidYMid meet" version="1.0"><defs><g/><clipPath id="5c9cfd980b"><path d="M 0 13.089844 L 52.5 13.089844 L 52.5 61.839844 L 0 61.839844 Z M 0 13.089844 " clip-rule="nonzero"/></clipPath></defs><g clip-path="url(#5c9cfd980b)"><path fill="#b129a2" d="M 26.25 28.925781 C 25.628906 28.925781 25.125 29.152344 25.125 29.433594 C 25.125 29.710938 25.628906 29.941406 26.25 29.941406 C 26.871094 29.941406 27.375 29.710938 27.375 29.433594 C 27.375 29.152344 26.871094 28.925781 26.25 28.925781 Z M 34.558594 30.039062 C 34.0625 30.039062 33.65625 30.222656 33.65625 30.445312 C 33.65625 30.671875 34.0625 30.855469 34.558594 30.855469 C 35.058594 30.855469 35.464844 30.671875 35.464844 30.445312 C 35.464844 30.222656 35.058594 30.039062 34.558594 30.039062 Z M 34.625 36.304688 C 36.523438 35.796875 37.683594 35.117188 37.683594 34.367188 C 37.683594 32.796875 32.566406 31.523438 26.25 31.523438 C 19.933594 31.523438 14.816406 32.796875 14.816406 34.367188 C 14.816406 35.117188 15.976562 35.796875 17.875 36.304688 C 11.921875 35.546875 7.851562 34.003906 7.851562 32.226562 C 7.851562 29.699219 16.089844 27.652344 26.25 27.652344 C 36.410156 27.652344 44.648438 29.699219 44.648438 32.226562 C 44.648438 34.003906 40.578125 35.546875 34.625 36.304688 Z M 43.34375 39.429688 C 42.894531 39.476562 42.535156 39.832031 42.488281 40.285156 L 42.414062 40.976562 L 42.339844 40.285156 C 42.292969 39.832031 41.9375 39.476562 41.484375 39.429688 L 40.792969 39.355469 L 41.484375 39.28125 C 41.9375 39.234375 42.292969 38.878906 42.339844 38.425781 L 42.414062 37.734375 L 42.488281 38.425781 C 42.535156 38.878906 42.894531 39.234375 43.34375 39.28125 L 44.039062 39.355469 Z M 12.027344 41.050781 C 11.574219 41.097656 11.21875 41.453125 11.171875 41.90625 L 11.097656 42.597656 L 11.023438 41.90625 C 10.972656 41.453125 10.617188 41.097656 10.167969 41.050781 L 9.472656 40.976562 L 10.167969 40.902344 C 10.617188 40.855469 10.972656 40.5 11.023438 40.046875 L 11.097656 39.355469 L 11.171875 40.046875 C 11.21875 40.5 11.574219 40.855469 12.027344 40.902344 L 12.71875 40.976562 Z M 26.25 26.300781 C 35.636719 26.300781 43.339844 28.539062 44.113281 30.824219 C 42.304688 28.785156 34.992188 27.257812 26.25 27.257812 C 17.507812 27.257812 10.195312 28.785156 8.386719 30.824219 C 9.160156 28.539062 16.863281 26.300781 26.25 26.300781 Z M 14.015625 21.640625 C 14.550781 21.585938 14.972656 21.164062 15.027344 20.632812 L 15.117188 19.8125 L 15.203125 20.632812 C 15.261719 21.164062 15.679688 21.585938 16.214844 21.640625 L 17.035156 21.730469 L 16.214844 21.816406 C 15.679688 21.871094 15.261719 22.292969 15.203125 22.824219 L 15.117188 23.644531 L 15.027344 22.824219 C 14.972656 22.292969 14.550781 21.871094 14.015625 21.816406 L 13.199219 21.730469 Z M 26.25 20.847656 C 29.644531 20.847656 32.523438 23.128906 33.519531 26.285156 C 31.289062 26.046875 28.832031 25.914062 26.25 25.914062 C 23.667969 25.914062 21.210938 26.046875 18.980469 26.285156 C 19.976562 23.128906 22.855469 20.847656 26.25 20.847656 Z M 39.695312 24.628906 C 40.226562 24.570312 40.648438 24.148438 40.703125 23.617188 L 40.792969 22.800781 L 40.878906 23.617188 C 40.9375 24.148438 41.355469 24.570312 41.890625 24.628906 L 42.710938 24.714844 L 41.890625 24.800781 C 41.355469 24.859375 40.9375 25.277344 40.878906 25.8125 L 40.792969 26.628906 L 40.703125 25.8125 C 40.648438 25.277344 40.226562 24.859375 39.695312 24.800781 L 38.875 24.714844 Z M 26.25 13.097656 C 11.753906 13.097656 0 24.832031 0 39.308594 C 0 48.882812 5.144531 57.261719 12.824219 61.835938 L 24.007812 36.285156 C 21.9375 36.066406 20.484375 35.554688 20.484375 34.960938 C 20.484375 34.164062 23.066406 33.519531 26.25 33.519531 C 29.433594 33.519531 32.015625 34.164062 32.015625 34.960938 C 32.015625 35.554688 30.5625 36.066406 28.492188 36.285156 L 39.679688 61.835938 C 47.355469 57.261719 52.5 48.882812 52.5 39.308594 C 52.5 24.832031 40.746094 13.097656 26.25 13.097656 Z M 30.949219 25.476562 C 31.351562 25.507812 31.746094 25.542969 32.140625 25.582031 C 31.105469 23.664062 29.296875 22.046875 27.195312 21.730469 C 28.832031 22.484375 30.164062 23.816406 30.949219 25.476562 Z M 17.941406 30.039062 C 17.4375 30.039062 17.035156 30.222656 17.035156 30.445312 C 17.035156 30.671875 17.4375 30.855469 17.941406 30.855469 C 18.441406 30.855469 18.84375 30.671875 18.84375 30.445312 C 18.84375 30.222656 18.441406 30.039062 17.941406 30.039062 " fill-opacity="1" fill-rule="nonzero"/></g><g fill="#2d3352" fill-opacity="1"><g transform="translate(53.215502, 45.638807)"><g><path d="M 11.328125 -9.5 L 16.171875 -9.5 L 16.171875 -2.984375 C 15.367188 -2.023438 14.394531 -1.242188 13.25 -0.640625 C 12.113281 -0.046875 10.878906 0.25 9.546875 0.25 C 8.347656 0.25 7.210938 0.0078125 6.140625 -0.46875 C 5.066406 -0.957031 4.140625 -1.613281 3.359375 -2.4375 C 2.578125 -3.269531 1.953125 -4.238281 1.484375 -5.34375 C 1.023438 -6.445312 0.796875 -7.625 0.796875 -8.875 C 0.796875 -10.113281 1.023438 -11.285156 1.484375 -12.390625 C 1.953125 -13.503906 2.578125 -14.472656 3.359375 -15.296875 C 4.140625 -16.128906 5.066406 -16.785156 6.140625 -17.265625 C 7.210938 -17.753906 8.347656 -18 9.546875 -18 C 10.648438 -18 11.691406 -17.78125 12.671875 -17.34375 C 13.660156 -16.90625 14.550781 -16.335938 15.34375 -15.640625 L 13.78125 -13.65625 C 13.226562 -14.238281 12.585938 -14.707031 11.859375 -15.0625 C 11.140625 -15.425781 10.367188 -15.609375 9.546875 -15.609375 C 8.691406 -15.609375 7.894531 -15.425781 7.15625 -15.0625 C 6.414062 -14.707031 5.769531 -14.222656 5.21875 -13.609375 C 4.664062 -12.992188 4.226562 -12.28125 3.90625 -11.46875 C 3.59375 -10.65625 3.4375 -9.789062 3.4375 -8.875 C 3.4375 -7.957031 3.59375 -7.09375 3.90625 -6.28125 C 4.226562 -5.46875 4.664062 -4.753906 5.21875 -4.140625 C 5.769531 -3.535156 6.414062 -3.054688 7.15625 -2.703125 C 7.894531 -2.359375 8.691406 -2.1875 9.546875 -2.1875 C 10.335938 -2.1875 11.070312 -2.335938 11.75 -2.640625 C 12.4375 -2.953125 13.046875 -3.367188 13.578125 -3.890625 L 13.578125 -7.0625 L 11.328125 -7.0625 Z M 11.328125 -9.5 "/></g></g></g><g fill="#2d3352" fill-opacity="1"><g transform="translate(69.350502, 45.638807)"><g><path d="M 8.640625 -9.78125 C 8.523438 -9.820312 8.410156 -9.867188 8.296875 -9.921875 C 8.191406 -9.953125 8.070312 -9.984375 7.9375 -10.015625 C 7.8125 -10.054688 7.671875 -10.078125 7.515625 -10.078125 C 7.035156 -10.078125 6.582031 -9.992188 6.15625 -9.828125 C 5.738281 -9.671875 5.378906 -9.457031 5.078125 -9.1875 C 4.785156 -8.925781 4.550781 -8.613281 4.375 -8.25 C 4.195312 -7.894531 4.109375 -7.519531 4.109375 -7.125 L 4.078125 0 L 1.65625 0 L 1.65625 -12 L 3.578125 -12 L 4.078125 -10.671875 C 4.421875 -11.160156 4.863281 -11.550781 5.40625 -11.84375 C 5.945312 -12.132812 6.625 -12.28125 7.4375 -12.28125 C 7.976562 -12.28125 8.585938 -12.207031 9.265625 -12.0625 Z M 8.640625 -9.78125 "/></g></g></g><g fill="#2d3352" fill-opacity="1"><g transform="translate(77.167343, 45.638807)"><g><path d="M 12.78125 -12 L 12.78125 0 L 10.734375 0 L 10.34375 -1.375 C 9.925781 -0.820312 9.390625 -0.40625 8.734375 -0.125 C 8.085938 0.15625 7.429688 0.296875 6.765625 0.296875 C 5.929688 0.296875 5.148438 0.132812 4.421875 -0.1875 C 3.691406 -0.507812 3.054688 -0.953125 2.515625 -1.515625 C 1.972656 -2.085938 1.539062 -2.757812 1.21875 -3.53125 C 0.90625 -4.300781 0.75 -5.117188 0.75 -5.984375 C 0.75 -6.859375 0.90625 -7.675781 1.21875 -8.4375 C 1.539062 -9.207031 1.972656 -9.875 2.515625 -10.4375 C 3.054688 -11.007812 3.691406 -11.457031 4.421875 -11.78125 C 5.148438 -12.113281 5.929688 -12.28125 6.765625 -12.28125 C 7.429688 -12.28125 8.070312 -12.148438 8.6875 -11.890625 C 9.3125 -11.628906 9.863281 -11.222656 10.34375 -10.671875 L 10.734375 -12 Z M 6.765625 -1.859375 C 7.253906 -1.859375 7.710938 -1.960938 8.140625 -2.171875 C 8.578125 -2.390625 8.953125 -2.6875 9.265625 -3.0625 C 9.585938 -3.445312 9.835938 -3.890625 10.015625 -4.390625 C 10.203125 -4.890625 10.296875 -5.421875 10.296875 -5.984375 C 10.296875 -6.554688 10.203125 -7.09375 10.015625 -7.59375 C 9.835938 -8.09375 9.585938 -8.53125 9.265625 -8.90625 C 8.953125 -9.28125 8.578125 -9.578125 8.140625 -9.796875 C 7.710938 -10.015625 7.253906 -10.125 6.765625 -10.125 C 6.285156 -10.125 5.828125 -10.015625 5.390625 -9.796875 C 4.953125 -9.578125 4.570312 -9.28125 4.25 -8.90625 C 3.9375 -8.53125 3.6875 -8.09375 3.5 -7.59375 C 3.320312 -7.09375 3.234375 -6.554688 3.234375 -5.984375 C 3.234375 -5.421875 3.320312 -4.890625 3.5 -4.390625 C 3.6875 -3.890625 3.9375 -3.445312 4.25 -3.0625 C 4.570312 -2.6875 4.953125 -2.390625 5.390625 -2.171875 C 5.828125 -1.960938 6.285156 -1.859375 6.765625 -1.859375 Z M 6.765625 -1.859375 "/></g></g></g><g fill="#2d3352" fill-opacity="1"><g transform="translate(89.368758, 45.638807)"><g><path d="M 1.40625 4.96875 L 1.40625 -12 L 3.328125 -12 L 3.828125 -10.75 C 4.316406 -11.238281 4.875 -11.613281 5.5 -11.875 C 6.125 -12.144531 6.832031 -12.28125 7.625 -12.28125 C 8.457031 -12.28125 9.226562 -12.113281 9.9375 -11.78125 C 10.644531 -11.457031 11.257812 -11.007812 11.78125 -10.4375 C 12.300781 -9.875 12.707031 -9.207031 13 -8.4375 C 13.289062 -7.675781 13.4375 -6.859375 13.4375 -5.984375 C 13.4375 -5.117188 13.289062 -4.300781 13 -3.53125 C 12.707031 -2.757812 12.300781 -2.085938 11.78125 -1.515625 C 11.257812 -0.953125 10.644531 -0.507812 9.9375 -0.1875 C 9.226562 0.132812 8.457031 0.296875 7.625 0.296875 C 6.800781 0.296875 6.078125 0.160156 5.453125 -0.109375 C 4.835938 -0.390625 4.296875 -0.785156 3.828125 -1.296875 L 3.828125 4.96875 Z M 7.421875 -10.078125 C 6.929688 -10.078125 6.46875 -9.992188 6.03125 -9.828125 C 5.601562 -9.671875 5.222656 -9.421875 4.890625 -9.078125 C 4.566406 -8.742188 4.3125 -8.320312 4.125 -7.8125 C 3.945312 -7.300781 3.859375 -6.691406 3.859375 -5.984375 C 3.859375 -5.234375 3.945312 -4.59375 4.125 -4.0625 C 4.3125 -3.539062 4.566406 -3.117188 4.890625 -2.796875 C 5.222656 -2.472656 5.601562 -2.234375 6.03125 -2.078125 C 6.46875 -1.929688 6.929688 -1.859375 7.421875 -1.859375 C 7.898438 -1.859375 8.359375 -1.960938 8.796875 -2.171875 C 9.234375 -2.390625 9.609375 -2.6875 9.921875 -3.0625 C 10.242188 -3.445312 10.492188 -3.890625 10.671875 -4.390625 C 10.859375 -4.890625 10.953125 -5.421875 10.953125 -5.984375 C 10.953125 -6.554688 10.859375 -7.09375 10.671875 -7.59375 C 10.492188 -8.09375 10.242188 -8.523438 9.921875 -8.890625 C 9.609375 -9.265625 9.234375 -9.554688 8.796875 -9.765625 C 8.359375 -9.972656 7.898438 -10.078125 7.421875 -10.078125 Z M 7.421875 -10.078125 "/></g></g></g><g fill="#2d3352" fill-opacity="1"><g transform="translate(101.845775, 45.638807)"><g><path d="M 3.828125 0 L 1.40625 0 L 1.40625 -18.296875 L 3.828125 -18.296875 L 3.828125 -10.90625 C 4.285156 -11.40625 4.757812 -11.757812 5.25 -11.96875 C 5.738281 -12.175781 6.3125 -12.28125 6.96875 -12.28125 C 7.800781 -12.28125 8.546875 -12.113281 9.203125 -11.78125 C 9.867188 -11.457031 10.4375 -11.007812 10.90625 -10.4375 C 11.375 -9.875 11.726562 -9.207031 11.96875 -8.4375 C 12.207031 -7.675781 12.328125 -6.859375 12.328125 -5.984375 L 12.328125 0 L 9.875 0 L 9.875 -5.984375 C 9.875 -6.554688 9.796875 -7.09375 9.640625 -7.59375 C 9.484375 -8.09375 9.265625 -8.523438 8.984375 -8.890625 C 8.710938 -9.265625 8.394531 -9.554688 8.03125 -9.765625 C 7.675781 -9.972656 7.285156 -10.078125 6.859375 -10.078125 C 6.515625 -10.078125 6.164062 -10.003906 5.8125 -9.859375 C 5.457031 -9.722656 5.132812 -9.492188 4.84375 -9.171875 C 4.550781 -8.859375 4.304688 -8.441406 4.109375 -7.921875 C 3.921875 -7.398438 3.828125 -6.773438 3.828125 -6.046875 Z M 3.828125 0 "/></g></g></g><g fill="#2d3352" fill-opacity="1"><g transform="translate(113.771588, 45.638807)"><g><path d="M 3.9375 0 L 1.5 0 L 1.5 -12 L 3.90625 -12 Z M 2.703125 -14.609375 C 2.273438 -14.609375 1.910156 -14.757812 1.609375 -15.0625 C 1.304688 -15.375 1.15625 -15.75 1.15625 -16.1875 C 1.15625 -16.625 1.304688 -16.992188 1.609375 -17.296875 C 1.910156 -17.597656 2.273438 -17.75 2.703125 -17.75 C 3.140625 -17.75 3.507812 -17.597656 3.8125 -17.296875 C 4.113281 -16.992188 4.265625 -16.625 4.265625 -16.1875 C 4.265625 -15.75 4.113281 -15.375 3.8125 -15.0625 C 3.507812 -14.757812 3.140625 -14.609375 2.703125 -14.609375 Z M 2.703125 -14.609375 "/></g></g></g><g fill="#2d3352" fill-opacity="1"><g transform="translate(117.37924, 45.638807)"><g><path d="M 6.921875 0.296875 C 6.085938 0.296875 5.304688 0.132812 4.578125 -0.1875 C 3.847656 -0.507812 3.210938 -0.953125 2.671875 -1.515625 C 2.128906 -2.085938 1.695312 -2.757812 1.375 -3.53125 C 1.0625 -4.300781 0.90625 -5.117188 0.90625 -5.984375 C 0.90625 -6.859375 1.0625 -7.675781 1.375 -8.4375 C 1.695312 -9.207031 2.128906 -9.875 2.671875 -10.4375 C 3.210938 -11.007812 3.847656 -11.457031 4.578125 -11.78125 C 5.304688 -12.113281 6.085938 -12.28125 6.921875 -12.28125 C 7.890625 -12.28125 8.78125 -12.0625 9.59375 -11.625 C 10.414062 -11.195312 11.101562 -10.601562 11.65625 -9.84375 L 9.953125 -8.515625 C 9.617188 -9.003906 9.195312 -9.382812 8.6875 -9.65625 C 8.175781 -9.9375 7.628906 -10.078125 7.046875 -10.078125 C 6.546875 -10.078125 6.066406 -9.972656 5.609375 -9.765625 C 5.160156 -9.554688 4.769531 -9.265625 4.4375 -8.890625 C 4.101562 -8.523438 3.835938 -8.09375 3.640625 -7.59375 C 3.453125 -7.09375 3.359375 -6.554688 3.359375 -5.984375 C 3.359375 -5.421875 3.453125 -4.890625 3.640625 -4.390625 C 3.835938 -3.890625 4.101562 -3.445312 4.4375 -3.0625 C 4.769531 -2.6875 5.160156 -2.390625 5.609375 -2.171875 C 6.066406 -1.960938 6.546875 -1.859375 7.046875 -1.859375 C 7.691406 -1.859375 8.28125 -2.03125 8.8125 -2.375 C 9.351562 -2.726562 9.789062 -3.195312 10.125 -3.78125 L 11.78125 -2.328125 C 11.25 -1.523438 10.554688 -0.882812 9.703125 -0.40625 C 8.847656 0.0625 7.921875 0.296875 6.921875 0.296875 Z M 6.921875 0.296875 "/></g></g></g><g fill="#2d3352" fill-opacity="1"><g transform="translate(128.453195, 45.638807)"><g><path d="M 7.71875 0 L 0.34375 -17.765625 L 3.1875 -17.765625 L 9.171875 -3.359375 L 15.15625 -17.765625 L 18 -17.765625 L 10.625 0 Z M 7.71875 0 "/></g></g></g><g fill="#2d3352" fill-opacity="1"><g transform="translate(145.1394, 45.638807)"><g><path d="M 7.09375 0.296875 C 6.226562 0.296875 5.414062 0.132812 4.65625 -0.1875 C 3.894531 -0.507812 3.226562 -0.953125 2.65625 -1.515625 C 2.082031 -2.085938 1.632812 -2.757812 1.3125 -3.53125 C 0.988281 -4.300781 0.828125 -5.117188 0.828125 -5.984375 C 0.828125 -6.859375 0.976562 -7.675781 1.28125 -8.4375 C 1.59375 -9.207031 2.007812 -9.875 2.53125 -10.4375 C 3.0625 -11.007812 3.675781 -11.457031 4.375 -11.78125 C 5.082031 -12.113281 5.835938 -12.28125 6.640625 -12.28125 C 7.460938 -12.28125 8.21875 -12.132812 8.90625 -11.84375 C 9.601562 -11.5625 10.207031 -11.117188 10.71875 -10.515625 C 11.226562 -9.921875 11.625 -9.160156 11.90625 -8.234375 C 12.1875 -7.304688 12.328125 -6.195312 12.328125 -4.90625 L 3.40625 -4.90625 C 3.519531 -4.476562 3.703125 -4.078125 3.953125 -3.703125 C 4.203125 -3.328125 4.5 -3 4.84375 -2.71875 C 5.1875 -2.445312 5.570312 -2.234375 6 -2.078125 C 6.425781 -1.929688 6.875 -1.859375 7.34375 -1.859375 C 7.976562 -1.859375 8.566406 -1.972656 9.109375 -2.203125 C 9.648438 -2.441406 10.113281 -2.753906 10.5 -3.140625 L 12 -1.625 C 11.414062 -1.039062 10.703125 -0.570312 9.859375 -0.21875 C 9.015625 0.125 8.09375 0.296875 7.09375 0.296875 Z M 6.640625 -10.078125 C 6.253906 -10.078125 5.890625 -10 5.546875 -9.84375 C 5.203125 -9.695312 4.882812 -9.488281 4.59375 -9.21875 C 4.300781 -8.957031 4.050781 -8.640625 3.84375 -8.265625 C 3.632812 -7.898438 3.484375 -7.5 3.390625 -7.0625 L 9.71875 -7.0625 C 9.6875 -7.46875 9.59375 -7.851562 9.4375 -8.21875 C 9.289062 -8.582031 9.082031 -8.898438 8.8125 -9.171875 C 8.550781 -9.453125 8.238281 -9.671875 7.875 -9.828125 C 7.519531 -9.992188 7.109375 -10.078125 6.640625 -10.078125 Z M 6.640625 -10.078125 "/></g></g></g><g fill="#2d3352" fill-opacity="1"><g transform="translate(156.764554, 45.638807)"><g><path d="M 8.640625 -9.78125 C 8.523438 -9.820312 8.410156 -9.867188 8.296875 -9.921875 C 8.191406 -9.953125 8.070312 -9.984375 7.9375 -10.015625 C 7.8125 -10.054688 7.671875 -10.078125 7.515625 -10.078125 C 7.035156 -10.078125 6.582031 -9.992188 6.15625 -9.828125 C 5.738281 -9.671875 5.378906 -9.457031 5.078125 -9.1875 C 4.785156 -8.925781 4.550781 -8.613281 4.375 -8.25 C 4.195312 -7.894531 4.109375 -7.519531 4.109375 -7.125 L 4.078125 0 L 1.65625 0 L 1.65625 -12 L 3.578125 -12 L 4.078125 -10.671875 C 4.421875 -11.160156 4.863281 -11.550781 5.40625 -11.84375 C 5.945312 -12.132812 6.625 -12.28125 7.4375 -12.28125 C 7.976562 -12.28125 8.585938 -12.207031 9.265625 -12.0625 Z M 8.640625 -9.78125 "/></g></g></g><g fill="#2d3352" fill-opacity="1"><g transform="translate(164.581394, 45.638807)"><g><path d="M 7 -2.5 C 7.144531 -2.632812 7.273438 -2.785156 7.390625 -2.953125 C 7.503906 -3.117188 7.5625 -3.3125 7.5625 -3.53125 C 7.5625 -3.800781 7.46875 -4.023438 7.28125 -4.203125 C 7.09375 -4.390625 6.859375 -4.546875 6.578125 -4.671875 C 6.304688 -4.796875 6.019531 -4.890625 5.71875 -4.953125 C 5.414062 -5.023438 5.164062 -5.085938 4.96875 -5.140625 C 4.414062 -5.273438 3.894531 -5.4375 3.40625 -5.625 C 2.925781 -5.820312 2.503906 -6.054688 2.140625 -6.328125 C 1.785156 -6.597656 1.503906 -6.921875 1.296875 -7.296875 C 1.085938 -7.679688 0.984375 -8.128906 0.984375 -8.640625 C 0.984375 -9.128906 1.097656 -9.585938 1.328125 -10.015625 C 1.554688 -10.441406 1.867188 -10.816406 2.265625 -11.140625 C 2.660156 -11.460938 3.117188 -11.71875 3.640625 -11.90625 C 4.171875 -12.101562 4.726562 -12.203125 5.3125 -12.203125 C 5.832031 -12.203125 6.328125 -12.125 6.796875 -11.96875 C 7.265625 -11.820312 7.6875 -11.617188 8.0625 -11.359375 C 8.4375 -11.109375 8.753906 -10.796875 9.015625 -10.421875 C 9.273438 -10.054688 9.445312 -9.648438 9.53125 -9.203125 L 7.34375 -8.671875 C 7.238281 -9.066406 7.019531 -9.398438 6.6875 -9.671875 C 6.351562 -9.941406 5.894531 -10.078125 5.3125 -10.078125 C 5.113281 -10.078125 4.90625 -10.046875 4.6875 -9.984375 C 4.46875 -9.929688 4.265625 -9.84375 4.078125 -9.71875 C 3.898438 -9.601562 3.75 -9.460938 3.625 -9.296875 C 3.5 -9.128906 3.4375 -8.9375 3.4375 -8.71875 C 3.4375 -8.488281 3.503906 -8.289062 3.640625 -8.125 C 3.785156 -7.957031 3.957031 -7.816406 4.15625 -7.703125 C 4.363281 -7.597656 4.582031 -7.507812 4.8125 -7.4375 C 5.039062 -7.375 5.257812 -7.316406 5.46875 -7.265625 C 6.351562 -7.046875 7.085938 -6.8125 7.671875 -6.5625 C 8.253906 -6.3125 8.71875 -6.035156 9.0625 -5.734375 C 9.414062 -5.429688 9.664062 -5.097656 9.8125 -4.734375 C 9.957031 -4.378906 10.03125 -3.976562 10.03125 -3.53125 C 10.03125 -3 9.90625 -2.5 9.65625 -2.03125 C 9.414062 -1.5625 9.082031 -1.15625 8.65625 -0.8125 C 8.226562 -0.46875 7.71875 -0.195312 7.125 0 C 6.53125 0.1875 5.894531 0.28125 5.21875 0.28125 C 4.175781 0.28125 3.25 0.0234375 2.4375 -0.484375 C 1.632812 -0.992188 1.085938 -1.675781 0.796875 -2.53125 L 2.859375 -3.453125 C 3.128906 -2.867188 3.472656 -2.472656 3.890625 -2.265625 C 4.304688 -2.054688 4.78125 -1.953125 5.3125 -1.953125 C 5.976562 -1.953125 6.539062 -2.132812 7 -2.5 Z M 7 -2.5 "/></g></g></g><g fill="#2d3352" fill-opacity="1"><g transform="translate(173.701076, 45.638807)"><g><path d="M 7.09375 0.296875 C 6.226562 0.296875 5.414062 0.132812 4.65625 -0.1875 C 3.894531 -0.507812 3.226562 -0.953125 2.65625 -1.515625 C 2.082031 -2.085938 1.632812 -2.757812 1.3125 -3.53125 C 0.988281 -4.300781 0.828125 -5.117188 0.828125 -5.984375 C 0.828125 -6.859375 0.976562 -7.675781 1.28125 -8.4375 C 1.59375 -9.207031 2.007812 -9.875 2.53125 -10.4375 C 3.0625 -11.007812 3.675781 -11.457031 4.375 -11.78125 C 5.082031 -12.113281 5.835938 -12.28125 6.640625 -12.28125 C 7.460938 -12.28125 8.21875 -12.132812 8.90625 -11.84375 C 9.601562 -11.5625 10.207031 -11.117188 10.71875 -10.515625 C 11.226562 -9.921875 11.625 -9.160156 11.90625 -8.234375 C 12.1875 -7.304688 12.328125 -6.195312 12.328125 -4.90625 L 3.40625 -4.90625 C 3.519531 -4.476562 3.703125 -4.078125 3.953125 -3.703125 C 4.203125 -3.328125 4.5 -3 4.84375 -2.71875 C 5.1875 -2.445312 5.570312 -2.234375 6 -2.078125 C 6.425781 -1.929688 6.875 -1.859375 7.34375 -1.859375 C 7.976562 -1.859375 8.566406 -1.972656 9.109375 -2.203125 C 9.648438 -2.441406 10.113281 -2.753906 10.5 -3.140625 L 12 -1.625 C 11.414062 -1.039062 10.703125 -0.570312 9.859375 -0.21875 C 9.015625 0.125 8.09375 0.296875 7.09375 0.296875 Z M 6.640625 -10.078125 C 6.253906 -10.078125 5.890625 -10 5.546875 -9.84375 C 5.203125 -9.695312 4.882812 -9.488281 4.59375 -9.21875 C 4.300781 -8.957031 4.050781 -8.640625 3.84375 -8.265625 C 3.632812 -7.898438 3.484375 -7.5 3.390625 -7.0625 L 9.71875 -7.0625 C 9.6875 -7.46875 9.59375 -7.851562 9.4375 -8.21875 C 9.289062 -8.582031 9.082031 -8.898438 8.8125 -9.171875 C 8.550781 -9.453125 8.238281 -9.671875 7.875 -9.828125 C 7.519531 -9.992188 7.109375 -10.078125 6.640625 -10.078125 Z M 6.640625 -10.078125 "/></g></g></g></svg>